<svg width="25" height="25" viewBox="0 0 25 25" fill="none" xmlns="http://www.w3.org/2000/svg">
	<rect width="25" height="25" rx="2" fill="#007504"/>
	<path d="M20.0324 6.00047C19.7882 6.0088 19.5565 6.12564 19.3863 6.32624L9.71272 17.4024L6.61792 13.8589C6.53132 13.7556 6.42759 13.6732 6.31281 13.6164C6.19803 13.5596 6.07451 13.5296 5.94948 13.5281C5.82444 13.5266 5.70041 13.5538 5.58465 13.6079C5.46888 13.662 5.36371 13.742 5.27529 13.8433C5.18688 13.9445 5.11699 14.0649 5.06973 14.1975C5.02247 14.33 4.99878 14.472 5.00005 14.6152C5.00132 14.7584 5.02753 14.8998 5.07714 15.0312C5.12674 15.1626 5.19876 15.2814 5.28895 15.3806L9.04823 19.6849C9.22449 19.8867 9.4635 20 9.71272 20C9.96193 20 10.2009 19.8867 10.3772 19.6849L20.7152 7.8479C20.851 7.69675 20.9438 7.50215 20.9813 7.2896C21.0189 7.07705 20.9995 6.85647 20.9257 6.65676C20.8519 6.45705 20.7271 6.28754 20.5677 6.17043C20.4083 6.05332 20.2217 5.99408 20.0324 6.00047Z" fill="white"/>
</svg>
