<svg width="16" height="16" viewBox="0 0 16 16" fill="none" xmlns="http://www.w3.org/2000/svg">
	<path d="M11.75 6.5C12.9926 6.5 14 5.49264 14 4.25C14 3.00736 12.9926 2 11.75 2C10.5074 2 9.5 3.00736 9.5 4.25C9.5 5.49264 10.5074 6.5 11.75 6.5Z" stroke="#000E55" stroke-width="0.93"
	      stroke-linecap="round" stroke-linejoin="round"/>
	<path d="M4.25049 14C5.49313 14 6.50049 12.9926 6.50049 11.75C6.50049 10.5074 5.49313 9.5 4.25049 9.5C3.00785 9.5 2.00049 10.5074 2.00049 11.75C2.00049 12.9926 3.00785 14 4.25049 14Z"
	      stroke="#000E55" stroke-width="0.93" stroke-linecap="round" stroke-linejoin="round"/>
	<path d="M9.50049 9.5H14.0005V13.25C14.0005 13.4489 13.9215 13.6397 13.7808 13.7803C13.6402 13.921 13.4494 14 13.2505 14H10.2505C10.0516 14 9.86081 13.921 9.72016 13.7803C9.57951 13.6397 9.50049 13.4489 9.50049 13.25V9.5ZM2.00049 2H6.50049V5.75C6.50049 5.94891 6.42147 6.13968 6.28082 6.28033C6.14017 6.42098 5.9494 6.5 5.75049 6.5H2.75049C2.55158 6.5 2.36081 6.42098 2.22016 6.28033C2.07951 6.13968 2.00049 5.94891 2.00049 5.75V2Z"
	      stroke="#000E55" stroke-width="0.93" stroke-linecap="round" stroke-linejoin="round"/>
</svg>
