<svg width="14" height="14" viewBox="0 0 14 14" fill="none" xmlns="http://www.w3.org/2000/svg">
	<circle cx="7" cy="7" r="7" fill="#B90003"/>
	<path d="M6.32748 2.3335H7.68698L7.51343 8.83697H6.47211L6.32748 2.3335ZM6.125 10.849C6.125 10.624 6.21178 10.4336 6.38533 10.2779C6.55888 10.1221 6.76618 10.0442 7.00723 10.0442C7.24828 10.0442 7.45076 10.1221 7.61467 10.2779C7.78822 10.4336 7.875 10.624 7.875 10.849C7.875 11.1 7.78822 11.299 7.61467 11.4462C7.45076 11.5933 7.24828 11.6668 7.00723 11.6668C6.76618 11.6668 6.55888 11.5933 6.38533 11.4462C6.21178 11.299 6.125 11.1 6.125 10.849Z" fill="white"/>
</svg>
