<svg width="25" height="25" viewBox="0 0 25 25" fill="none" xmlns="http://www.w3.org/2000/svg">
	<rect width="25" height="25" rx="2" fill="#B2B2B2"/>
	<path d="M12.293 14.7002L6.69824 20.2949C6.42418 20.5689 5.9791 20.5689 5.70508 20.2949C5.43108 20.0209 5.43114 19.5758 5.70508 19.3018L11.2998 13.707L12.293 14.7002ZM20.2949 19.3018C20.5689 19.5758 20.5689 20.0209 20.2949 20.2949C20.0209 20.5689 19.5758 20.5689 19.3018 20.2949L13.707 14.7002L14.7002 13.707L20.2949 19.3018ZM13.9932 13L13 13.9932L12.0068 13L13 12.0068L13.9932 13ZM5.70508 5.70508C5.9791 5.43106 6.42418 5.43113 6.69824 5.70508L12.293 11.2998L11.2998 12.293L5.70508 6.69824C5.43113 6.42418 5.43106 5.9791 5.70508 5.70508ZM19.3018 5.70605C19.5758 5.432 20.0209 5.432 20.2949 5.70605C20.5685 5.98011 20.5687 6.42433 20.2949 6.69824L14.7002 12.293L13.707 11.2998L19.3018 5.70605Z" fill="white" stroke="white"/>
</svg>
