<svg width="20" height="25" viewBox="0 0 20 25" fill="none" xmlns="http://www.w3.org/2000/svg">
	<path d="M17.2 8.89995L16.192 18.9776C16.0396 20.5052 15.964 21.2684 15.616 21.8456C15.3108 22.3536 14.8619 22.7599 14.326 23.0132C13.7176 23.3 12.952 23.3 11.416 23.3H8.584C7.0492 23.3 6.2824 23.3 5.674 23.012C5.13766 22.7589 4.68834 22.3526 4.3828 21.8444C4.0372 21.2684 3.9604 20.5052 3.8068 18.9776L2.8 8.89995M11.8 16.7V10.7M8.2 16.7V10.7M1 5.89995H6.538M6.538 5.89995L7.0012 2.69355C7.1356 2.11035 7.6204 1.69995 8.1772 1.69995H11.8228C12.3796 1.69995 12.8632 2.11035 12.9988 2.69355L13.462 5.89995M6.538 5.89995H13.462M13.462 5.89995H19" stroke="#000E55" stroke-width="1.6" stroke-linecap="round" stroke-linejoin="round"/>
</svg>
