<svg width="16" height="17" viewBox="0 0 16 17" fill="none" xmlns="http://www.w3.org/2000/svg">
	<path d="M8 12.0121C7.87733 12.0121 7.76381 11.9919 7.65943 11.9515C7.55505 11.9111 7.45333 11.841 7.35429 11.7412L4.36 8.74806C4.24876 8.63682 4.19086 8.50577 4.18629 8.35491C4.18171 8.20406 4.23962 8.06577 4.36 7.94006C4.48648 7.81358 4.62248 7.7492 4.768 7.74691C4.91429 7.74463 5.05029 7.80672 5.176 7.9332L7.42857 10.1858V0.871485C7.42857 0.7092 7.48305 0.5732 7.592 0.463485C7.70095 0.353771 7.83695 0.299295 8 0.300057C8.16305 0.300819 8.29905 0.355295 8.408 0.463485C8.51695 0.571676 8.57143 0.707676 8.57143 0.871485V10.1858L10.824 7.9332C10.9352 7.82196 11.0674 7.76368 11.2206 7.75834C11.3737 7.75301 11.5131 7.81358 11.6389 7.94006C11.7608 8.06577 11.8229 8.20063 11.8251 8.34463C11.8274 8.48863 11.7657 8.62311 11.64 8.74806L8.64571 11.7423C8.54667 11.8414 8.44495 11.9111 8.34057 11.9515C8.23695 11.9919 8.12343 12.0121 8 12.0121ZM1.84686 16.3001C1.32038 16.3001 0.881143 16.1241 0.529143 15.7721C0.177143 15.4201 0.000761905 14.9804 0 14.4532V12.2555C0 12.0932 0.0544763 11.9576 0.163429 11.8486C0.272381 11.7397 0.408381 11.6848 0.571429 11.6841C0.734476 11.6833 0.870476 11.7382 0.979428 11.8486C1.08838 11.9591 1.14286 12.0947 1.14286 12.2555V14.4532C1.14286 14.6292 1.216 14.7907 1.36229 14.9378C1.50857 15.0848 1.66971 15.158 1.84571 15.1572H14.1543C14.3295 15.1572 14.4907 15.0841 14.6377 14.9378C14.7848 14.7915 14.8579 14.63 14.8571 14.4532V12.2555C14.8571 12.0932 14.9116 11.9576 15.0206 11.8486C15.1295 11.7397 15.2655 11.6848 15.4286 11.6841C15.5916 11.6833 15.7276 11.7382 15.8366 11.8486C15.9455 11.9591 16 12.0947 16 12.2555V14.4532C16 14.9797 15.824 15.4189 15.472 15.7709C15.12 16.1229 14.6804 16.2993 14.1531 16.3001H1.84686Z" fill="#000E55"/>
</svg>
