<svg width="8" height="8" viewBox="0 0 8 8" fill="none" xmlns="http://www.w3.org/2000/svg">
	<path d="M7.55078 7.08984C7.79838 7.08984 8 7.2941 8 7.54492C7.99997 7.7962 7.79836 8 7.55078 8H5.01367C4.76609 8 4.56449 7.7962 4.56445 7.54492C4.56445 7.2941 4.76607 7.08984 5.01367 7.08984H7.55078ZM4.10742 0.424805C4.51305 -0.0957223 5.22044 -0.143257 5.79102 0.310547L6.44629 0.831055C6.71512 1.04127 6.89474 1.31891 6.95605 1.61035C7.02663 1.93071 6.95126 2.24542 6.73926 2.51758L2.83398 7.56738C2.65477 7.79671 2.3904 7.92589 2.10742 7.93066L0.550781 7.9502C0.466159 7.94999 0.39585 7.8925 0.376953 7.81152L0.0234375 6.27734C-0.0377661 5.99555 0.0229937 5.70396 0.202148 5.47949L2.9707 1.89648C3.01788 1.83924 3.10262 1.83055 3.15918 1.87305L4.32422 2.7998C4.39967 2.86187 4.50387 2.89519 4.6123 2.88086C4.8432 2.85202 4.99818 2.64143 4.97461 2.41699C4.96038 2.30265 4.90435 2.20729 4.8291 2.13574C4.80562 2.11671 3.7068 1.23518 3.69727 1.22754C3.62652 1.17021 3.61235 1.06533 3.66895 0.994141L4.10742 0.424805Z" fill="currentColor"/>
</svg>
