<svg width="13" height="13" viewBox="0 0 13 13" fill="none" xmlns="http://www.w3.org/2000/svg">
	<path d="M11.4755 0.5C11.8343 0.500237 12.125 0.791552 12.125 1.15039V11.8496C12.125 12.2084 11.8343 12.4998 11.4755 12.5C11.1166 12.5 10.8251 12.2086 10.8251 11.8496V1.15039C10.8251 0.791406 11.1166 0.5 11.4755 0.5ZM1.06929 0.762695C1.29149 0.540493 1.63434 0.512875 1.88667 0.679688L1.98823 0.762695L7.17378 5.94727C7.42762 6.20111 7.42762 6.61335 7.17378 6.86719L1.98823 12.0527C1.73446 12.3061 1.32303 12.3061 1.06929 12.0527C0.815446 11.7989 0.815446 11.3867 1.06929 11.1328L5.79487 6.40625L1.06929 1.68164L0.986279 1.58008C0.819453 1.32784 0.847295 0.984937 1.06929 0.762695Z" fill="#000E55"/>
</svg>
