<svg width="13" height="13" viewBox="0 0 13 13" fill="none" xmlns="http://www.w3.org/2000/svg">
	<path d="M1.5245 0.5C1.1657 0.500237 0.875 0.791552 0.875 1.15039V11.8496C0.875 12.2084 1.1657 12.4998 1.5245 12.5C1.8834 12.5 2.1749 12.2086 2.1749 11.8496V1.15039C2.1749 0.791406 1.8834 0.5 1.5245 0.5ZM11.9307 0.762695C11.7085 0.540493 11.3657 0.512875 11.1133 0.679688L11.0118 0.762695L5.82622 5.94727C5.57238 6.20111 5.57238 6.61335 5.82622 6.86719L11.0118 12.0527C11.2655 12.3061 11.677 12.3061 11.9307 12.0527C12.1846 11.7989 12.1846 11.3867 11.9307 11.1328L7.20513 6.40625L11.9307 1.68164L12.0137 1.58008C12.1805 1.32784 12.1527 0.984937 11.9307 0.762695Z" fill="#000E55"/>
</svg>