<svg width="16" height="16" viewBox="0 0 16 16" fill="none" xmlns="http://www.w3.org/2000/svg">
	<path d="M13.8778 7.0203C13.8778 8.80366 13.1446 10.4158 11.9633 11.5717C10.8151 12.6951 9.24365 13.3876 7.51041 13.3876C3.99382 13.3876 1.14307 10.5369 1.14307 7.0203C1.14307 3.50371 3.99382 0.652954 7.51041 0.652954C11.027 0.652954 13.8778 3.50371 13.8778 7.0203ZM2.11287 7.0203C2.11287 10.0013 4.52943 12.4178 7.51041 12.4178C10.4914 12.4178 12.908 10.0013 12.908 7.0203C12.908 4.03932 10.4914 1.62276 7.51041 1.62276C4.52943 1.62276 2.11287 4.03932 2.11287 7.0203Z"
	      fill="#000E55"/>
	<path d="M14.7542 15.286C14.991 15.5228 15.3749 15.5228 15.6118 15.286C15.8486 15.0491 15.8486 14.6652 15.6118 14.4284L14.7542 15.286ZM11.7544 11.4286L11.3256 11.8574L14.7542 15.286L15.183 14.8572L15.6118 14.4284L12.1832 10.9998L11.7544 11.4286Z"
	      fill="#000E55"/>
</svg>
