<svg width="28" height="28" viewBox="0 0 28 28" fill="none" xmlns="http://www.w3.org/2000/svg">
	<path d="M13.3722 0.932939C13.6721 0.487269 14.3279 0.48727 14.6278 0.93294L17.3093 4.9175C17.4791 5.16992 17.7837 5.29606 18.0823 5.23769L22.7959 4.31625C23.3231 4.21319 23.7868 4.67693 23.6837 5.20414L22.7623 9.91771C22.7039 10.2163 22.8301 10.5209 23.0825 10.6907L27.0671 13.3722C27.5127 13.6721 27.5127 14.3279 27.0671 14.6278L23.0825 17.3093C22.8301 17.4791 22.7039 17.7837 22.7623 18.0823L23.6838 22.7959C23.7868 23.3231 23.3231 23.7868 22.7959 23.6837L18.0823 22.7623C17.7837 22.7039 17.4791 22.8301 17.3093 23.0825L14.6278 27.0671C14.3279 27.5127 13.6721 27.5127 13.3722 27.0671L10.6907 23.0825C10.5209 22.8301 10.2163 22.7039 9.91771 22.7623L5.20414 23.6838C4.67692 23.7868 4.21319 23.3231 4.31625 22.7959L5.23769 18.0823C5.29606 17.7837 5.16992 17.4791 4.9175 17.3093L0.932939 14.6278C0.487269 14.3279 0.48727 13.6721 0.93294 13.3722L4.9175 10.6907C5.16992 10.5209 5.29606 10.2163 5.23769 9.91771L4.31625 5.20414C4.21319 4.67692 4.67693 4.21319 5.20414 4.31625L9.91771 5.23769C10.2163 5.29606 10.5209 5.16992 10.6907 4.9175L13.3722 0.932939Z" fill="#E667A4"/>
	<path d="M11.246 13.7225C9.97053 13.7225 9.08203 12.824 9.08203 11.5279C9.08203 10.2465 9.97053 9.33331 11.246 9.33331C12.5214 9.33331 13.4099 10.2465 13.4099 11.5279C13.4099 12.824 12.507 13.7225 11.246 13.7225ZM10.5438 19.2457L16.2903 9.45114H17.5084L11.7619 19.2457H10.5438ZM11.246 12.7798C11.9482 12.7798 12.4497 12.2496 12.4497 11.5279C12.4497 10.8062 11.9482 10.2759 11.246 10.2759C10.5438 10.2759 10.0422 10.8062 10.0422 11.5279C10.0422 12.2496 10.5438 12.7798 11.246 12.7798ZM17.0069 19.3635C15.7458 19.3635 14.8573 18.4651 14.8573 17.1837C14.8573 15.9023 15.7458 15.0186 17.0069 15.0186C18.2679 15.0186 19.1708 15.9023 19.1708 17.1837C19.1708 18.4651 18.2679 19.3635 17.0069 19.3635ZM17.0069 18.4209C17.7091 18.4209 18.1963 17.9054 18.1963 17.1837C18.1963 16.4767 17.7091 15.9612 17.0069 15.9612C16.319 15.9612 15.8174 16.4767 15.8174 17.1837C15.8174 17.9054 16.319 18.4209 17.0069 18.4209Z" fill="white"/>
</svg>
